<?xml version="1.0" encoding="UTF-8"?>
<svg id="Layer_1" data-name="Layer 1" xmlns="http://www.w3.org/2000/svg" viewBox="0 0 1080 1080">
  <defs>
    <style>
      .cls-1 {
        fill: #f4f2e9;
      }

      .cls-1, .cls-2 {
        stroke-width: 0px;
      }

      .cls-2 {
        fill: #89b449;
      }
    </style>
  </defs>
  <path class="cls-1" d="m1081.24,1081.24H-1.24V-1.24h1082.49v1082.49Z"/>
  <rect class="cls-2" x="252.49" y="249.45" width="575.02" height="575.02" rx="287.51" ry="287.51"/>
  <g>
    <circle class="cls-1" cx="536.74" cy="375.55" r="47.13"/>
    <path class="cls-1" d="m503.21,437.63c-5.7-2.02-11.61-3.59-17.69-4.65-6.2-1.09-12.58-1.66-19.09-1.66h-110.35v110.95c0,20.47,5.52,39.65,15.14,56.11,13.07,22.38,33.73,39.74,58.43,48.52,11.5,4.09,23.89,6.32,36.79,6.32,6.51,0,12.89-.57,19.09-1.66v-60.86c-6.21,2.69-13.05,4.19-20.26,4.19-28.12,0-50.91-22.76-50.91-50.82v-50.82h50.91c7.4,0,14.44,1.58,20.78,4.41,2.22.99,4.35,2.14,6.39,3.43,2.82-8.27,6.43-16.16,10.78-23.58,5.64-9.61,12.47-18.43,20.31-26.25.81-.81,1.63-1.61,2.47-2.39-7.08-4.57-14.71-8.35-22.77-11.22Z"/>
    <path class="cls-1" d="m576.78,646.93c6.96,2.48,14.24,4.27,21.77,5.29,4.91.68,9.92,1.02,15.01,1.02,12.9,0,25.28-2.23,36.79-6.32,24.71-8.78,45.37-26.15,58.45-48.54,9.61-16.46,15.12-35.63,15.12-56.09v-110.96h-110.35c-5.09,0-10.1.34-15.01,1.02-7.53,1.03-14.81,2.82-21.77,5.29-9.43,3.35-18.27,7.95-26.32,13.61-3.65,2.57-7.15,5.35-10.46,8.33-14.19,12.76-25.07,29.17-31.2,47.76-1.86,5.64-3.28,11.48-4.23,17.47-.89,5.69-1.36,11.53-1.36,17.47v203.22h24.83c26.92,0,48.74-21.82,48.74-48.74v-49.84Zm-4.68-129.51c5.34-8.66,13.21-15.58,22.58-19.77,6.34-2.84,13.38-4.41,20.78-4.41h50.91v50.82c0,28.07-22.79,50.82-50.91,50.82-7.4,0-14.44-1.58-20.78-4.41-17.76-7.94-30.13-25.73-30.13-46.41,0-9.76,2.76-18.89,7.55-26.64Z"/>
  </g>
</svg>