<?xml version="1.0" encoding="UTF-8"?>
<svg id="Layer_1" data-name="Layer 1" xmlns="http://www.w3.org/2000/svg" viewBox="0 0 1080 1080">
  <defs>
    <style>
      .cls-1 {
        fill: #f4f2e9;
      }

      .cls-1, .cls-2, .cls-3 {
        stroke-width: 0px;
      }

      .cls-2 {
        fill: #89b449;
      }

      .cls-3 {
        fill: #417f3e;
      }
    </style>
  </defs>
  <path class="cls-1" d="m1080.62,1080.62H-.62V-.62h1081.24v1081.24Z"/>
  <g>
    <g>
      <circle class="cls-2" cx="537.84" cy="289.98" r="31.28"/>
      <path class="cls-3" d="m515.58,331.18c-3.78-1.34-7.7-2.38-11.74-3.09-4.12-.72-8.35-1.1-12.67-1.1h-73.24v73.64c0,13.59,3.66,26.31,10.05,37.24,8.68,14.86,22.39,26.38,38.78,32.2,7.63,2.71,15.86,4.19,24.42,4.19,4.32,0,8.55-.38,12.67-1.1v-40.4c-4.12,1.79-8.66,2.78-13.44,2.78-18.66,0-33.79-15.1-33.79-33.73v-33.73h33.79c4.91,0,9.58,1.05,13.79,2.93,1.47.66,2.89,1.42,4.24,2.28,1.87-5.49,4.27-10.73,7.16-15.65,3.74-6.38,8.28-12.23,13.48-17.42.54-.54,1.08-1.07,1.64-1.59-4.7-3.03-9.76-5.54-15.11-7.45Z"/>
      <path class="cls-2" d="m564.41,470.1c4.62,1.64,9.45,2.83,14.45,3.51,3.26.45,6.58.68,9.96.68,8.56,0,16.78-1.48,24.42-4.2,16.4-5.82,30.12-17.36,38.79-32.22,6.38-10.92,10.03-23.65,10.03-37.23v-73.65h-73.24c-3.38,0-6.71.23-9.96.68-5,.68-9.83,1.87-14.45,3.51-6.26,2.22-12.13,5.28-17.47,9.03-2.43,1.7-4.74,3.55-6.94,5.53-9.42,8.47-16.64,19.36-20.71,31.7-1.23,3.74-2.18,7.62-2.81,11.6-.59,3.78-.9,7.65-.9,11.6v134.88h16.48c17.87,0,32.35-14.48,32.35-32.35v-33.08Zm-3.1-85.96c3.55-5.75,8.77-10.34,14.99-13.12,4.21-1.88,8.88-2.93,13.79-2.93h33.79v33.73c0,18.63-15.13,33.73-33.79,33.73-4.91,0-9.58-1.05-13.79-2.93-11.79-5.27-20-17.08-20-30.8,0-6.48,1.83-12.54,5.01-17.68Z"/>
    </g>
    <g>
      <path class="cls-3" d="m283.38,574.24h25.91l38.77,109.57h-24.83l-7.23-22.52h-40.35l-7.43,22.52h-23.95l39.11-109.57Zm-1.51,68.17h28.06l-13.84-43.11-14.22,43.11Z"/>
      <path class="cls-3" d="m400.36,602.71c5.15,2.13,9.3,6.05,12.47,11.75v-11.67h20.67v76.86c0,10.46-1.76,18.34-5.28,23.64-6.05,9.12-17.64,13.68-34.79,13.68-10.36,0-18.81-2.03-25.35-6.1-6.54-4.06-10.16-10.14-10.85-18.21h23.04c.59,2.48,1.56,4.26,2.9,5.35,2.28,1.93,6.12,2.9,11.52,2.9,7.63,0,12.74-2.55,15.31-7.66,1.68-3.27,2.53-8.77,2.53-16.5v-5.2c-2.03,3.47-4.21,6.07-6.54,7.81-4.21,3.22-9.69,4.83-16.43,4.83-10.41,0-18.72-3.65-24.94-10.96-6.22-7.31-9.33-17.21-9.33-29.7s2.99-22.16,8.98-30.37c5.99-8.2,14.48-12.3,25.46-12.3,4.06,0,7.6.62,10.62,1.86Zm7.21,58.09c3.41-3.74,5.11-9.7,5.11-17.88,0-7.68-1.62-13.53-4.85-17.54-3.23-4.01-7.56-6.02-12.99-6.02-7.4,0-12.51,3.49-15.32,10.48-1.48,3.72-2.22,8.3-2.22,13.75,0,4.71.79,8.9,2.37,12.56,2.86,6.84,7.99,10.26,15.4,10.26,4.93,0,9.1-1.87,12.51-5.61Z"/>
      <path class="cls-3" d="m498.29,600.89c.27.03.88.06,1.82.11v21.71c-1.34-.15-2.53-.25-3.57-.3-1.04-.05-1.88-.07-2.53-.07-8.52,0-14.25,2.78-17.17,8.33-1.64,3.12-2.45,7.93-2.45,14.42v38.73h-21.33v-81.03h20.22v14.12c3.27-5.4,6.12-9.09,8.55-11.08,3.96-3.32,9.12-4.98,15.46-4.98.4,0,.73.01,1,.04Z"/>
      <path class="cls-3" d="m534.3,593.12h-21.48v-19.55h21.48v19.55Zm-21.48,9.66h21.48v81.03h-21.48v-81.03Z"/>
      <path class="cls-3" d="m672.38,636.39c-6.41,5.35-15.57,8.03-27.48,8.03h-22.81v39.4h-22.75v-109.57h47.05c10.85,0,19.49,2.82,25.94,8.47,6.45,5.65,9.67,14.4,9.67,26.24,0,12.93-3.21,22.08-9.62,27.43Zm-17.47-39.47c-2.9-2.43-6.96-3.64-12.19-3.64h-20.63v32.26h20.63c5.22,0,9.29-1.31,12.19-3.94,2.9-2.63,4.35-6.79,4.35-12.49s-1.45-9.76-4.35-12.19Z"/>
      <path class="cls-3" d="m743.67,600.89c.27.03.88.06,1.82.11v21.71c-1.34-.15-2.53-.25-3.57-.3-1.04-.05-1.88-.07-2.53-.07-8.52,0-14.25,2.78-17.17,8.33-1.64,3.12-2.45,7.93-2.45,14.42v38.73h-21.33v-81.03h20.22v14.12c3.27-5.4,6.12-9.09,8.55-11.08,3.96-3.32,9.12-4.98,15.46-4.98.4,0,.73.01,1,.04Z"/>
      <path class="cls-3" d="m825.47,673.9c-6.84,8.44-17.22,12.66-31.15,12.66s-24.31-4.22-31.15-12.66c-6.84-8.44-10.26-18.6-10.26-30.49s3.42-21.81,10.26-30.38c6.84-8.57,17.22-12.85,31.15-12.85s24.31,4.28,31.15,12.85c6.84,8.57,10.26,18.69,10.26,30.38s-3.42,22.05-10.26,30.49Zm-16.95-11.71c3.32-4.4,4.98-10.66,4.98-18.78s-1.66-14.36-4.98-18.74c-3.32-4.38-8.08-6.57-14.27-6.57s-10.97,2.19-14.31,6.57c-3.34,4.38-5.02,10.63-5.02,18.74s1.67,14.38,5.02,18.78c3.34,4.4,8.11,6.61,14.31,6.61s10.95-2.2,14.27-6.61Z"/>
      <path class="cls-3" d="m265.3,786.03c.68,4.82,2.02,8.42,4.02,10.8,3.65,4.34,9.91,6.51,18.78,6.51,5.31,0,9.62-.57,12.93-1.72,6.28-2.19,9.42-6.27,9.42-12.24,0-3.48-1.54-6.18-4.62-8.08-3.08-1.86-7.96-3.51-14.64-4.94l-11.42-2.5c-11.22-2.48-18.93-5.17-23.13-8.08-7.11-4.87-10.66-12.47-10.66-22.83,0-9.45,3.48-17.29,10.43-23.54,6.95-6.25,17.17-9.37,30.64-9.37,11.25,0,20.85,2.95,28.79,8.84,7.94,5.89,12.11,14.44,12.5,25.65h-21.18c-.39-6.34-3.23-10.85-8.51-13.52-3.52-1.76-7.9-2.65-13.13-2.65-5.82,0-10.47,1.14-13.94,3.43s-5.21,5.49-5.21,9.59c0,3.77,1.71,6.58,5.14,8.44,2.2,1.24,6.87,2.7,14.01,4.37l18.51,4.36c8.11,1.91,14.19,4.46,18.24,7.66,6.29,4.96,9.43,12.14,9.43,21.54s-3.73,17.64-11.17,24.01c-7.45,6.37-17.97,9.55-31.57,9.55s-24.81-3.14-32.76-9.41c-7.96-6.27-11.93-14.89-11.93-25.87h21.04Z"/>
      <path class="cls-3" d="m396.34,742.17c5.44,2.44,9.93,6.28,13.48,11.54,3.19,4.63,5.27,10.01,6.21,16.12.55,3.58.77,8.74.67,15.48h-56.81c.32,7.82,3.04,13.31,8.16,16.46,3.11,1.96,6.86,2.93,11.24,2.93,4.65,0,8.42-1.19,11.32-3.58,1.58-1.29,2.98-3.08,4.2-5.37h20.82c-.55,4.63-3.07,9.33-7.56,14.1-6.99,7.58-16.77,11.38-29.34,11.38-10.38,0-19.54-3.2-27.47-9.6-7.94-6.4-11.9-16.81-11.9-31.23,0-13.51,3.58-23.87,10.74-31.08,7.16-7.21,16.46-10.82,27.89-10.82,6.79,0,12.9,1.22,18.34,3.66Zm-30.51,17.62c-2.88,2.97-4.69,6.99-5.43,12.07h35.13c-.37-5.41-2.18-9.52-5.43-12.32-3.25-2.8-7.28-4.21-12.1-4.21-5.23,0-9.29,1.49-12.17,4.46Z"/>
      <path class="cls-3" d="m470.34,738.76c.26.02.85.06,1.75.11v20.89c-1.29-.14-2.43-.24-3.43-.29-1-.05-1.81-.07-2.43-.07-8.21,0-13.72,2.67-16.53,8.01-1.57,3-2.36,7.63-2.36,13.88v37.28h-20.54v-77.99h19.46v13.6c3.15-5.2,5.89-8.75,8.23-10.66,3.82-3.2,8.78-4.79,14.88-4.79.38,0,.7.01.97.04Z"/>
      <path class="cls-3" d="m532.09,740.59h21.9l-28.16,77.99h-21.5l-27.97-77.99h22.9l16.24,57.53,16.6-57.53Z"/>
      <path class="cls-3" d="m586.51,731.29h-20.68v-18.82h20.68v18.82Zm-20.68,9.3h20.68v77.99h-20.68v-77.99Z"/>
      <path class="cls-3" d="m652.91,768.57c-.38-2.91-1.36-5.53-2.94-7.87-2.3-3.15-5.86-4.72-10.69-4.72-6.89,0-11.6,3.41-14.13,10.23-1.34,3.62-2.01,8.42-2.01,14.42s.67,10.3,2.01,13.78c2.44,6.49,7.03,9.73,13.77,9.73,4.78,0,8.18-1.29,10.19-3.86,2.01-2.58,3.23-5.92,3.66-10.02h20.82c-.48,6.2-2.72,12.07-6.73,17.6-6.4,8.92-15.88,13.38-28.44,13.38s-21.8-3.72-27.72-11.16c-5.92-7.44-8.88-17.09-8.88-28.95,0-13.38,3.27-23.79,9.81-31.23,6.54-7.44,15.57-11.16,27.08-11.16,9.79,0,17.8,2.2,24.03,6.58,6.23,4.39,9.92,12.14,11.07,23.25h-20.89Z"/>
      <path class="cls-3" d="m738.58,742.17c5.44,2.44,9.93,6.28,13.48,11.54,3.19,4.63,5.27,10.01,6.21,16.12.55,3.58.77,8.74.67,15.48h-56.81c.32,7.82,3.04,13.31,8.16,16.46,3.11,1.96,6.86,2.93,11.24,2.93,4.65,0,8.42-1.19,11.32-3.58,1.58-1.29,2.98-3.08,4.2-5.37h20.82c-.55,4.63-3.07,9.33-7.56,14.1-6.99,7.58-16.77,11.38-29.34,11.38-10.38,0-19.54-3.2-27.47-9.6-7.94-6.4-11.9-16.81-11.9-31.23,0-13.51,3.58-23.87,10.74-31.08,7.16-7.21,16.46-10.82,27.89-10.82,6.79,0,12.9,1.22,18.34,3.66Zm-30.51,17.62c-2.88,2.97-4.69,6.99-5.43,12.07h35.13c-.37-5.41-2.18-9.52-5.43-12.32-3.25-2.8-7.28-4.21-12.1-4.21-5.23,0-9.29,1.49-12.17,4.46Z"/>
      <path class="cls-3" d="m785.07,793.68c.43,3.62,1.37,6.2,2.8,7.73,2.54,2.72,7.24,4.08,14.09,4.08,4.03,0,7.23-.6,9.6-1.79s3.56-2.98,3.56-5.37-.96-4.03-2.87-5.22c-1.91-1.19-9.02-3.24-21.33-6.15-8.86-2.19-15.11-4.94-18.73-8.23-3.63-3.24-5.44-7.92-5.44-14.02,0-7.2,2.83-13.39,8.5-18.57,5.67-5.18,13.64-7.76,23.91-7.76s17.7,1.94,23.84,5.83c6.14,3.89,9.67,10.6,10.58,20.14h-20.39c-.29-2.62-1.03-4.7-2.22-6.22-2.25-2.77-6.08-4.15-11.48-4.15-4.45,0-7.62.69-9.51,2.08-1.89,1.38-2.83,3-2.83,4.87,0,2.34,1,4.03,3.01,5.08,2.01,1.1,9.1,2.98,21.29,5.65,8.12,1.91,14.21,4.79,18.27,8.66,4.01,3.91,6.01,8.8,6.01,14.67,0,7.73-2.88,14.04-8.64,18.93-5.76,4.89-14.66,7.33-26.71,7.33s-21.35-2.59-27.21-7.76c-5.86-5.17-8.78-11.77-8.78-19.78h20.68Z"/>
    </g>
  </g>
</svg>