<?xml version="1.0" encoding="UTF-8"?>
<svg id="Layer_1" data-name="Layer 1" xmlns="http://www.w3.org/2000/svg" viewBox="0 0 1080 1080">
  <defs>
    <style>
      .cls-1 {
        fill: #f4f2e9;
      }

      .cls-1, .cls-2 {
        stroke-width: 0px;
      }

      .cls-2 {
        fill: #89b449;
      }
    </style>
  </defs>
  <path class="cls-2" d="m1081.24,1081.24H-1.24V-1.24h1082.49v1082.49Z"/>
  <g>
    <circle class="cls-1" cx="535.4" cy="312.43" r="66.45"/>
    <path class="cls-1" d="m488.14,399.95c-8.03-2.85-16.37-5.06-24.94-6.56-8.75-1.53-17.74-2.33-26.92-2.33h-155.58v156.42c0,28.87,7.78,55.9,21.34,79.11,18.43,31.56,47.56,56.03,82.37,68.4,16.22,5.76,33.68,8.9,51.86,8.9,9.18,0,18.17-.8,26.92-2.33v-85.81c-8.75,3.8-18.41,5.9-28.56,5.9-39.65,0-71.78-32.08-71.78-71.65v-71.65h71.78c10.44,0,20.35,2.22,29.3,6.22,3.13,1.4,6.13,3.02,9,4.83,3.97-11.66,9.07-22.79,15.2-33.25,7.95-13.55,17.58-25.98,28.63-37.01,1.14-1.14,2.3-2.26,3.48-3.38-9.98-6.44-20.74-11.78-32.11-15.82Z"/>
    <path class="cls-1" d="m591.86,695.04c9.81,3.49,20.08,6.01,30.69,7.46,6.92.96,13.99,1.44,21.17,1.44,18.18,0,35.65-3.14,51.86-8.91,34.83-12.37,63.97-36.87,82.41-68.44,13.55-23.2,21.32-50.24,21.32-79.09v-156.45h-155.59c-7.18,0-14.24.49-21.17,1.44-10.61,1.45-20.88,3.97-30.69,7.46-13.3,4.72-25.76,11.21-37.11,19.19-5.15,3.62-10.08,7.54-14.75,11.75-20.01,18-35.35,41.13-43.99,67.34-2.62,7.95-4.63,16.18-5.96,24.64-1.26,8.03-1.92,16.26-1.92,24.64v286.52h35.01c37.95,0,68.72-30.77,68.72-68.72v-70.27Zm-6.59-182.59c7.53-12.2,18.62-21.97,31.83-27.88,8.94-4,18.86-6.22,29.3-6.22h71.78v71.65c0,39.57-32.14,71.65-71.78,71.65-10.44,0-20.35-2.22-29.3-6.22-25.04-11.2-42.48-36.28-42.48-65.43,0-13.77,3.89-26.63,10.64-37.56Z"/>
  </g>
</svg>